<svg xmlns="http://www.w3.org/2000/svg" xmlns:xlink="http://www.w3.org/1999/xlink" width="500" zoomAndPan="magnify" viewBox="0 0 375 374.999991" height="500" preserveAspectRatio="xMidYMid meet" version="1.0"><defs><g/><clipPath id="913a208d6f"><path d="M 75 141.0625 L 121.929688 141.0625 L 121.929688 234.0625 L 75 234.0625 Z M 75 141.0625 " clip-rule="nonzero"/></clipPath><clipPath id="dea45e6695"><path d="M 9.429688 141.0625 L 56 141.0625 L 56 234.0625 L 9.429688 234.0625 Z M 9.429688 141.0625 " clip-rule="nonzero"/></clipPath></defs><g clip-path="url(#913a208d6f)"><path fill="#29acff" d="M 75.457031 141.054688 L 75.457031 160.070312 L 102.878906 187.550781 L 75.457031 215.027344 L 75.457031 234.046875 L 121.859375 187.550781 Z M 75.457031 141.054688 " fill-opacity="1" fill-rule="nonzero"/></g><g clip-path="url(#dea45e6695)"><path fill="#29acff" d="M 55.929688 160.070312 L 55.929688 141.054688 L 9.527344 187.550781 L 55.929688 234.046875 L 55.929688 215.027344 L 28.507812 187.550781 Z M 55.929688 160.070312 " fill-opacity="1" fill-rule="nonzero"/></g><path fill="#29acff" d="M 43.03125 187.550781 L 65.691406 164.84375 L 88.355469 187.550781 L 65.691406 210.257812 Z M 43.03125 187.550781 " fill-opacity="1" fill-rule="nonzero"/><g fill="#ffffff" fill-opacity="1"><g transform="translate(135.225509, 178.189502)"><g><path d="M 18.484375 0 L 1.640625 0 L 1.640625 -4.140625 L 7.609375 -4.140625 L 7.609375 -13.03125 L 1.640625 -13.03125 L 1.640625 -17.15625 L 18.484375 -17.15625 L 18.484375 -13.03125 L 12.53125 -13.03125 L 12.53125 -4.140625 L 18.484375 -4.140625 Z M 18.484375 0 "/></g></g></g><g fill="#ffffff" fill-opacity="1"><g transform="translate(157.866588, 178.189502)"><g><path d="M 15.28125 0 L 7.484375 0 L -0.078125 -17.015625 L -0.078125 -17.15625 L 5.546875 -17.15625 L 11.421875 -3.5 L 11.546875 -3.5 L 17.546875 -17.15625 L 23 -17.15625 L 23 -17.015625 Z M 15.28125 0 "/></g></g></g><g fill="#ffffff" fill-opacity="1"><g transform="translate(183.306096, 178.189502)"><g><path d="M 8.125 -17.15625 L 15.609375 -17.15625 L 23.859375 -0.125 L 23.859375 0 L 18.234375 0 L 16.671875 -3.375 L 6.984375 -3.375 L 5.421875 0 L -0.078125 0 L -0.078125 -0.125 Z M 11.78125 -13.640625 L 8.78125 -7.1875 L 14.90625 -7.1875 L 11.90625 -13.640625 Z M 11.78125 -13.640625 "/></g></g></g><g fill="#ffffff" fill-opacity="1"><g transform="translate(209.627994, 178.189502)"><g><path d="M 7.9375 0 L 2.78125 0 L 2.78125 -17.15625 L 11.046875 -17.15625 L 15.484375 -7.609375 L 15.609375 -7.609375 L 20.203125 -17.15625 L 28.265625 -17.15625 L 28.265625 0 L 23.09375 0 L 23.09375 -13.640625 L 22.96875 -13.640625 L 18.109375 -3.53125 L 12.78125 -3.53125 L 8.09375 -13.640625 L 7.9375 -13.640625 Z M 7.9375 0 "/></g></g></g><g fill="#ffffff" fill-opacity="1"><g transform="translate(243.185456, 178.189502)"><g><path d="M 21.390625 -8.703125 C 22.515625 -8.410156 23.332031 -7.941406 23.84375 -7.296875 C 24.351562 -6.648438 24.609375 -5.796875 24.609375 -4.734375 C 24.609375 -3.109375 24.054688 -1.910156 22.953125 -1.140625 C 21.859375 -0.378906 20.140625 0 17.796875 0 L 2.78125 0 L 2.78125 -17.15625 L 17.046875 -17.15625 C 19.453125 -17.15625 21.21875 -16.78125 22.34375 -16.03125 C 23.46875 -15.28125 24.03125 -14.097656 24.03125 -12.484375 C 24.03125 -11.546875 23.816406 -10.765625 23.390625 -10.140625 C 22.972656 -9.515625 22.304688 -9.035156 21.390625 -8.703125 Z M 18.6875 -10.390625 L 18.6875 -13.09375 L 7.890625 -13.09375 L 7.890625 -10.390625 Z M 7.890625 -4.0625 L 19.265625 -4.0625 L 19.265625 -6.859375 L 7.890625 -6.859375 Z M 7.890625 -4.0625 "/></g></g></g><g fill="#ffffff" fill-opacity="1"><g transform="translate(271.70071, 178.189502)"><g><path d="M 22.640625 0 L 2.78125 0 L 2.78125 -17.15625 L 22.265625 -17.15625 L 22.265625 -12.96875 L 7.9375 -12.96875 L 7.9375 -10.34375 L 18.390625 -10.34375 L 18.390625 -6.8125 L 7.9375 -6.8125 L 7.9375 -4.1875 L 22.640625 -4.1875 Z M 22.640625 0 "/></g></g></g><g fill="#ffffff" fill-opacity="1"><g transform="translate(298.375561, 178.189502)"><g><path d="M 24.03125 -0.125 L 24.03125 0 L 17.375 0 L 11.09375 -5.953125 L 7.9375 -5.953125 L 7.9375 0 L 2.78125 0 L 2.78125 -17.15625 L 16.6875 -17.15625 C 19.125 -17.15625 20.914062 -16.6875 22.0625 -15.75 C 23.207031 -14.8125 23.78125 -13.410156 23.78125 -11.546875 C 23.78125 -9.816406 23.285156 -8.484375 22.296875 -7.546875 C 21.316406 -6.617188 19.785156 -6.097656 17.703125 -5.984375 Z M 18.328125 -13.171875 L 7.9375 -13.171875 L 7.9375 -9.5625 L 18.328125 -9.5625 Z M 18.328125 -13.171875 "/></g></g></g><g fill="#ffffff" fill-opacity="1"><g transform="translate(326.260537, 178.189502)"><g><path d="M 11.75 -10.4375 L 24.71875 -10.4375 L 24.71875 -7.234375 C 24.71875 -5.398438 24.335938 -3.925781 23.578125 -2.8125 C 22.816406 -1.695312 21.597656 -0.878906 19.921875 -0.359375 C 18.253906 0.148438 16.023438 0.40625 13.234375 0.40625 C 10.359375 0.40625 8.097656 0.113281 6.453125 -0.46875 C 4.804688 -1.050781 3.613281 -1.988281 2.875 -3.28125 C 2.132812 -4.570312 1.765625 -6.335938 1.765625 -8.578125 C 1.765625 -10.859375 2.078125 -12.640625 2.703125 -13.921875 C 3.335938 -15.210938 4.378906 -16.140625 5.828125 -16.703125 C 7.285156 -17.265625 9.316406 -17.546875 11.921875 -17.546875 C 16.410156 -17.546875 20.304688 -17.414062 23.609375 -17.15625 L 23.75 -12.5625 C 19.46875 -12.96875 16.023438 -13.234375 13.421875 -13.359375 C 11.953125 -13.441406 9.957031 -13.53125 7.4375 -13.625 L 7.4375 -4.28125 C 9.25 -4.1875 11.257812 -4.140625 13.46875 -4.140625 C 15.738281 -4.140625 17.804688 -4.1875 19.671875 -4.28125 L 19.671875 -6.90625 L 11.75 -6.90625 Z M 11.75 -10.4375 "/></g></g></g><g fill="#ffffff" fill-opacity="1"><g transform="translate(183.640013, 212.638284)"><g><path d="M 13.265625 0.40625 C 8.859375 0.40625 5.007812 0.210938 1.71875 -0.171875 L 1.53125 -4.765625 C 4.84375 -4.328125 7.484375 -4.039062 9.453125 -3.90625 C 11.421875 -3.789062 13.742188 -3.691406 16.421875 -3.609375 L 16.421875 -6.375 L 7.265625 -7.09375 C 5.210938 -7.257812 3.695312 -7.753906 2.71875 -8.578125 C 1.75 -9.410156 1.265625 -10.628906 1.265625 -12.234375 C 1.265625 -14.066406 1.925781 -15.410156 3.25 -16.265625 C 4.582031 -17.117188 6.675781 -17.546875 9.53125 -17.546875 C 12.519531 -17.546875 16.226562 -17.367188 20.65625 -17.015625 L 20.8125 -12.4375 C 17.5625 -12.875 14.609375 -13.175781 11.953125 -13.34375 C 10.171875 -13.457031 8.414062 -13.523438 6.6875 -13.546875 L 6.6875 -10.84375 L 15.359375 -10.15625 C 17.597656 -9.976562 19.238281 -9.476562 20.28125 -8.65625 C 21.320312 -7.832031 21.84375 -6.585938 21.84375 -4.921875 C 21.84375 -3.117188 21.179688 -1.78125 19.859375 -0.90625 C 18.535156 -0.03125 16.335938 0.40625 13.265625 0.40625 Z M 13.265625 0.40625 "/></g></g></g><g fill="#ffffff" fill-opacity="1"><g transform="translate(209.003885, 212.638284)"><g><path d="M 18.484375 0 L 1.640625 0 L 1.640625 -4.140625 L 7.609375 -4.140625 L 7.609375 -13.03125 L 1.640625 -13.03125 L 1.640625 -17.15625 L 18.484375 -17.15625 L 18.484375 -13.03125 L 12.53125 -13.03125 L 12.53125 -4.140625 L 18.484375 -4.140625 Z M 18.484375 0 "/></g></g></g><g fill="#ffffff" fill-opacity="1"><g transform="translate(231.644964, 212.638284)"><g><path d="M 20.078125 0 L 2.78125 0 L 2.78125 -17.15625 L 7.9375 -17.15625 L 7.9375 -4.390625 L 20.078125 -4.390625 Z M 20.078125 0 "/></g></g></g><g fill="#ffffff" fill-opacity="1"><g transform="translate(254.689412, 212.638284)"><g><path d="M 15.28125 0 L 7.484375 0 L -0.078125 -17.015625 L -0.078125 -17.15625 L 5.546875 -17.15625 L 11.421875 -3.5 L 11.546875 -3.5 L 17.546875 -17.15625 L 23 -17.15625 L 23 -17.015625 Z M 15.28125 0 "/></g></g></g><g fill="#ffffff" fill-opacity="1"><g transform="translate(280.128922, 212.638284)"><g><path d="M 8.125 -17.15625 L 15.609375 -17.15625 L 23.859375 -0.125 L 23.859375 0 L 18.234375 0 L 16.671875 -3.375 L 6.984375 -3.375 L 5.421875 0 L -0.078125 0 L -0.078125 -0.125 Z M 11.78125 -13.640625 L 8.78125 -7.1875 L 14.90625 -7.1875 L 11.90625 -13.640625 Z M 11.78125 -13.640625 "/></g></g></g></svg>