<svg xmlns="http://www.w3.org/2000/svg" xmlns:xlink="http://www.w3.org/1999/xlink" width="500" zoomAndPan="magnify" viewBox="0 0 375 374.999991" height="500" preserveAspectRatio="xMidYMid meet" version="1.0"><defs><clipPath id="bfd1901ebf"><path d="M 219 34.804688 L 372.917969 34.804688 L 372.917969 340.054688 L 219 340.054688 Z M 219 34.804688 " clip-rule="nonzero"/></clipPath><clipPath id="cbc6efc073"><path d="M 2.417969 34.804688 L 156 34.804688 L 156 340.054688 L 2.417969 340.054688 Z M 2.417969 34.804688 " clip-rule="nonzero"/></clipPath></defs><g clip-path="url(#bfd1901ebf)"><path fill="#29acff" d="M 219.859375 34.773438 L 219.859375 97.199219 L 310.171875 187.390625 L 219.859375 277.578125 L 219.859375 340.007812 L 372.679688 187.390625 Z M 219.859375 34.773438 " fill-opacity="1" fill-rule="nonzero"/></g><g clip-path="url(#cbc6efc073)"><path fill="#29acff" d="M 155.554688 97.199219 L 155.554688 34.773438 L 2.734375 187.390625 L 155.554688 340.007812 L 155.554688 277.578125 L 65.246094 187.390625 Z M 155.554688 97.199219 " fill-opacity="1" fill-rule="nonzero"/></g><path fill="#29acff" d="M 113.070312 187.390625 L 187.707031 112.855469 L 262.339844 187.390625 L 187.707031 261.925781 Z M 113.070312 187.390625 " fill-opacity="1" fill-rule="nonzero"/></svg>